<?xml version="1.0" encoding="UTF-8" standalone="no"?>
<!-- Created with Inkscape (http://www.inkscape.org/) -->

<svg
   xmlns:dc="http://purl.org/dc/elements/1.1/"
   xmlns:cc="http://creativecommons.org/ns#"
   xmlns:rdf="http://www.w3.org/1999/02/22-rdf-syntax-ns#"
   xmlns:svg="http://www.w3.org/2000/svg"
   xmlns="http://www.w3.org/2000/svg"
   xmlns:sodipodi="http://sodipodi.sourceforge.net/DTD/sodipodi-0.dtd"
   xmlns:inkscape="http://www.inkscape.org/namespaces/inkscape"
   id="svg2"
   version="1.1"
   inkscape:version="0.48.5 r10040"
   width="562.5"
   height="562.5"
   xml:space="preserve"
   sodipodi:docname="titlebar-icon-square.svg"
   inkscape:export-filename="/home/devyn/Projects/ideahack/epsilon-jukebox/app/res/titlebar-icon-square.png"
   inkscape:export-xdpi="81.919998"
   inkscape:export-ydpi="81.919998"><metadata
     id="metadata8"><rdf:RDF><cc:Work
         rdf:about=""><dc:format>image/svg+xml</dc:format><dc:type
           rdf:resource="http://purl.org/dc/dcmitype/StillImage" /><dc:title></dc:title></cc:Work></rdf:RDF></metadata><defs
     id="defs6"><clipPath
       clipPathUnits="userSpaceOnUse"
       id="clipPath16"><path
         d="M 0,450 350,450 350,0 0,0 0,450 z"
         id="path18"
         inkscape:connector-curvature="0" /></clipPath><clipPath
       clipPathUnits="userSpaceOnUse"
       id="clipPath24"><path
         d="m 22.3828,431.071 304.9332,0 0,-398.7984 -304.9332,0 0,398.7984 z"
         id="path26"
         inkscape:connector-curvature="0" /></clipPath></defs><sodipodi:namedview
     pagecolor="#ffffff"
     bordercolor="#666666"
     borderopacity="1"
     objecttolerance="10"
     gridtolerance="10"
     guidetolerance="10"
     inkscape:pageopacity="0"
     inkscape:pageshadow="2"
     inkscape:window-width="1818"
     inkscape:window-height="962"
     id="namedview4"
     showgrid="false"
     inkscape:zoom="0.83911111"
     inkscape:cx="213.02751"
     inkscape:cy="275.68366"
     inkscape:window-x="1968"
     inkscape:window-y="64"
     inkscape:window-maximized="0"
     inkscape:current-layer="g10" /><g
     id="g10"
     inkscape:groupmode="layer"
     inkscape:label="titlebar-icon"
     transform="matrix(1.25,0,0,-1.25,0,562.5)"><g
       id="g3031"
       transform="translate(50.150576,0)"><g
         id="g12"><g
           clip-path="url(#clipPath16)"
           id="g14"><g
             id="g20"><g
               id="g22" /><g
               id="g28"><g
                 style="opacity:0.25"
                 id="g30"
                 clip-path="url(#clipPath24)"><g
                   id="g32"
                   transform="translate(179.5508,164.9012)"><path
                     inkscape:connector-curvature="0"
                     id="path34"
                     style="fill:#292929;fill-opacity:1;fill-rule:nonzero;stroke:none"
                     d="m 0,0 c -8.395,0 -15.202,6.799 -15.202,15.202 0,8.402 6.807,15.201 15.202,15.201 49.398,0 89.584,40.187 89.584,89.585 0,63.842 -51.944,115.779 -115.779,115.779 -39.674,0 -76.973,-15.447 -105.023,-43.505 -5.938,-5.938 -15.558,-5.938 -21.496,0 -5.939,5.931 -5.939,15.558 0,21.497 33.788,33.795 78.717,52.411 126.519,52.411 80.611,0 146.183,-65.579 146.183,-146.182 C 119.988,53.829 66.158,0 0,0" /></g><g
                   id="g36"
                   transform="translate(194.2848,32.2726)"><path
                     inkscape:connector-curvature="0"
                     id="path38"
                     style="fill:#292929;fill-opacity:1;fill-rule:nonzero;stroke:none"
                     d="m 0,0 c -64.585,0 -125.651,28.236 -167.53,77.493 -5.441,6.383 -4.661,15.988 1.729,21.422 6.391,5.448 15.989,4.676 21.43,-1.737 C -108.275,54.75 -55.655,30.403 0,30.403 c 39.088,0 76.365,9.086 110.821,26.989 7.467,3.86 16.612,0.965 20.501,-6.487 3.86,-7.453 0.965,-16.627 -6.487,-20.502 C 86.563,10.511 43.393,0 0,0" /></g><g
                   id="g40"
                   transform="translate(190.4547,107.1515)"><path
                     inkscape:connector-curvature="0"
                     id="path42"
                     style="fill:#292929;fill-opacity:1;fill-rule:nonzero;stroke:none"
                     d="m 0,0 c -58.61,0 -106.293,47.683 -106.293,106.293 0,48.567 39.511,88.077 88.078,88.077 8.395,0 15.201,-6.806 15.201,-15.201 0,-8.395 -6.806,-15.202 -15.201,-15.202 -31.799,0 -57.675,-25.875 -57.675,-57.674 0,-41.849 34.041,-75.89 75.89,-75.89 8.402,0 15.202,-6.799 15.202,-15.201 C 15.202,6.799 8.402,0 0,0" /></g></g></g></g><g
             transform="translate(179.5508,151.8727)"
             id="g44"><path
               inkscape:connector-curvature="0"
               id="path46"
               style="fill:#ffffff;fill-opacity:1;fill-rule:nonzero;stroke:none"
               d="m 0,0 c -8.395,0 -15.202,6.799 -15.202,15.202 0,8.402 6.807,15.201 15.202,15.201 49.398,0 89.584,40.187 89.584,89.585 0,63.842 -51.944,115.779 -115.779,115.779 -39.674,0 -76.973,-15.447 -105.023,-43.505 -5.938,-5.938 -15.558,-5.938 -21.496,0 -5.939,5.931 -5.939,15.558 0,21.497 33.788,33.795 78.717,52.411 126.519,52.411 80.611,0 146.183,-65.579 146.183,-146.182 C 119.988,53.829 66.158,0 0,0" /></g><g
             transform="translate(194.2848,19.2442)"
             id="g48"><path
               inkscape:connector-curvature="0"
               id="path50"
               style="fill:#ffffff;fill-opacity:1;fill-rule:nonzero;stroke:none"
               d="m 0,0 c -64.585,0 -125.651,28.236 -167.53,77.493 -5.441,6.383 -4.661,15.988 1.729,21.422 6.391,5.448 15.989,4.676 21.43,-1.737 C -108.275,54.75 -55.655,30.403 0,30.403 c 39.088,0 76.365,9.086 110.821,26.989 7.467,3.86 16.612,0.965 20.501,-6.487 3.86,-7.453 0.965,-16.627 -6.487,-20.502 C 86.563,10.511 43.393,0 0,0" /></g><g
             transform="translate(190.4547,94.123)"
             id="g52"><path
               inkscape:connector-curvature="0"
               id="path54"
               style="fill:#ffffff;fill-opacity:1;fill-rule:nonzero;stroke:none"
               d="m 0,0 c -58.61,0 -106.293,47.683 -106.293,106.293 0,48.566 39.511,88.077 88.078,88.077 8.395,0 15.201,-6.806 15.201,-15.201 0,-8.395 -6.806,-15.202 -15.201,-15.202 -31.799,0 -57.675,-25.875 -57.675,-57.674 0,-41.849 34.041,-75.89 75.89,-75.89 8.402,0 15.202,-6.799 15.202,-15.201 C 15.202,6.799 8.402,0 0,0" /></g></g></g></g></g></svg>